# xmcd
#
# Track frame offsets: 
#        150
#        16413
#        29996
#        46858
#        64406
#        77695
#        94130
#        110420
#        128648
#        145067
#        160205
#        180224
#
# Disc length: 2671 seconds
#
# Revision: 0
# Processed by: cddbd v1.5.2PL0 Copyright (c) Steve Scherf et al.
# Submitted via: ExactAudioCopy v1.0b3
#
DISCID=9a0a6d0c
DTITLE=The Band Perry - The Band Perry
DYEAR=2010
DGENRE=Country
TTITLE0=You Lie
TTITLE1=Hip to My Heart
TTITLE2=If I Die Young
TTITLE3=All Your Life
TTITLE4=Miss You Being Gone
TTITLE5=Double Heart
TTITLE6=Postcard from Paris
TTITLE7=Walk Me Down the Middle
TTITLE8=Independence
TTITLE9=Quittin' You
TTITLE10=Lasso
TTITLE11=If I Die Young (Pop Mix)
EXTD=
EXTT0=
EXTT1=
EXTT2=
EXTT3=
EXTT4=
EXTT5=
EXTT6=
EXTT7=
EXTT8=
EXTT9=
EXTT10=
EXTT11=
PLAYORDER=
